<?xml version="1.0" encoding="UTF-8"?> <!-- Generator: Adobe Illustrator 24.0.1, SVG Export Plug-In . SVG Version: 6.00 Build 0) --> <svg xmlns="http://www.w3.org/2000/svg" xmlns:xlink="http://www.w3.org/1999/xlink" id="Layer_1" x="0px" y="0px" viewBox="0 0 100 98.7" style="enable-background:new 0 0 100 98.7;" xml:space="preserve"> <style type="text/css"> .st0{fill:#151B21;} </style> <g> <path class="st0" d="M50,3.6c25.2,0,45.7,20.5,45.7,45.7S75.2,95,50,95S4.3,74.5,4.3,49.3S24.8,3.6,50,3.6 M50,0.6 C23.1,0.6,1.3,22.4,1.3,49.3S23.1,98,50,98s48.7-21.8,48.7-48.7S76.9,0.6,50,0.6L50,0.6z"></path> </g> <path class="st0" d="M57.3,72.9c-21-10.4-26.5-29-27.2-35.8S41,24.4,41,24.4L48.3,37c0,0-8,4.3-6.9,6.6C47.3,56,54.8,60.5,54.8,60.5 c2.5,0.9,8-5.1,8-5.1l10.6,9.9C73.5,65.1,64.6,76.4,57.3,72.9z"></path> </svg> 