<?xml version="1.0" encoding="UTF-8"?> <!-- Generator: Adobe Illustrator 24.0.1, SVG Export Plug-In . SVG Version: 6.00 Build 0) --> <svg xmlns="http://www.w3.org/2000/svg" xmlns:xlink="http://www.w3.org/1999/xlink" id="Layer_1" x="0px" y="0px" viewBox="0 0 100 93.7" style="enable-background:new 0 0 100 93.7;" xml:space="preserve"> <style type="text/css"> .st0{fill:#151B21;} </style> <g> <path class="st0" d="M12.9,71.3h6.3v0.2c1.2,6.2,7.2,10.4,13.4,9.2c4.7-0.9,8.3-4.5,9.2-9.2v-0.2h21.4v0.2 c1.2,6.2,7.2,10.4,13.4,9.2c4.7-0.9,8.3-4.5,9.2-9.2v-0.2h8.4c2.2,0,3.9-1.8,3.9-4L98,48.6c0-0.4-0.2-0.8-0.4-1.2l-6.1-7.9L85,25.2 c-2-4.3-6.5-7.1-11.3-7.1H61v-3.6c0-1.1-0.8-1.8-1.9-1.8H13.9c-1.1,0-1.9,0.8-1.9,1.8s0.8,1.9,1.9,1.9h43.4v24 c0,1.1,0.8,1.9,1.8,1.9h30l5.4,7v18.4H86v-0.2C84.8,61.2,78.8,57,72.5,58c-4.8,0.9-8.5,4.6-9.3,9.3v0.2H41.8v-0.2 c-0.5-3-2.2-5.7-4.7-7.5c-2.5-1.7-5.6-2.4-8.6-1.8c-4.8,0.9-8.5,4.6-9.3,9.3v0.2H13c-1.1,0-1.9,0.8-1.9,1.8S11.8,71.3,12.9,71.3z M61,38.6V21.8h12.6c3.4,0,6.4,1.9,7.8,4.9L87,38.6H61z M74.6,61.8c4.3,0,7.8,3.5,7.8,7.8s-3.5,7.8-7.8,7.8s-7.8-3.5-7.8-7.8 S70.3,61.8,74.6,61.8z M30.3,61.6c4.3,0,7.9,3.5,7.9,7.8c0,2.1-0.7,4-2.2,5.5s-3.5,2.3-5.6,2.3c-4.3,0-7.9-3.5-7.9-7.8 C22.5,65.2,26,61.6,30.3,61.6z"></path> <path class="st0" d="M20.6,51.3H8.9c-1.1,0-1.9,0.8-1.9,1.9S7.8,55,8.9,55h11.6c1,0,2-0.9,2-1.8C22.5,52.1,21.7,51.3,20.6,51.3z"></path> <path class="st0" d="M27.9,38.7H3.6c-1.1,0-1.9,0.8-1.9,1.9c0,1,0.8,1.8,1.9,1.8h24.3c1.1,0,1.9-0.8,1.9-1.8S29,38.7,27.9,38.7z"></path> <path class="st0" d="M33.2,25.9H8.9c-1.1,0-1.9,0.8-1.9,1.9s0.8,1.9,1.9,1.9h24.3c1.1,0,1.8-0.8,1.8-1.9S34.3,25.9,33.2,25.9z"></path> </g> </svg> 