<?xml version="1.0" encoding="UTF-8"?> <!-- Generator: Adobe Illustrator 24.0.1, SVG Export Plug-In . SVG Version: 6.00 Build 0) --> <svg xmlns="http://www.w3.org/2000/svg" xmlns:xlink="http://www.w3.org/1999/xlink" id="Layer_1" x="0px" y="0px" viewBox="0 0 509.8 101.8" style="enable-background:new 0 0 509.8 101.8;" xml:space="preserve"> <style type="text/css"> .st0{fill:#141E28;} </style> <g> <g> <g> <path class="st0" d="M160.9,82.3V28.7h19v19.4h8l13.3-19.4h21.1L204.2,55l20.5,27.3h-21.6l-14.3-20.1H180v20.1H160.9z"></path> <path class="st0" d="M224.6,52.8c0-4.1,0.7-7.7,2.2-10.8c1.5-3.2,3.6-5.8,6.5-7.9c2.8-2.1,6.4-3.8,10.5-4.9 c4.2-1.1,9-1.7,14.4-1.7c5.4,0,10.2,0.6,14.4,1.7s7.7,2.8,10.5,4.9c2.8,2.2,5,4.8,6.5,7.9c1.5,3.1,2.2,6.7,2.2,10.8v5.6 c0,4-0.7,7.6-2.2,10.7s-3.6,5.8-6.5,7.9c-2.9,2.2-6.4,3.8-10.6,4.9s-9,1.7-14.4,1.7s-10.2-0.6-14.4-1.7s-7.7-2.7-10.5-4.9 c-2.8-2.1-5-4.8-6.5-7.9s-2.2-6.7-2.2-10.8L224.6,52.8L224.6,52.8z M258.2,70.2c1.7,0,3.5-0.2,5.2-0.6s3.3-1.1,4.6-2 c1.4-0.9,2.5-2.1,3.3-3.6s1.3-3.3,1.3-5.4v-6.1c0-2.1-0.4-4-1.3-5.5c-0.8-1.5-2-2.7-3.3-3.6c-1.4-0.9-2.9-1.6-4.6-2 s-3.5-0.6-5.2-0.6s-3.5,0.2-5.2,0.6c-1.7,0.4-3.3,1.1-4.6,2c-1.4,0.9-2.5,2.1-3.3,3.6s-1.3,3.3-1.3,5.4v6.1 c0,2.1,0.4,3.9,1.3,5.4c0.8,1.5,1.9,2.7,3.3,3.6c1.4,0.9,2.9,1.6,4.6,2C254.7,70,256.5,70.2,258.2,70.2z"></path> <path class="st0" d="M360.6,49.3c0,3-0.5,5.7-1.6,8.1c-1.1,2.3-2.6,4.3-4.7,5.8c-2,1.6-4.4,2.7-7.2,3.5c-2.8,0.8-5.9,1.2-9.3,1.2 h-18.7v14.4h-19V28.7h37c3.5,0,6.7,0.4,9.6,1.2c2.9,0.8,5.4,1.9,7.4,3.4c2.1,1.5,3.7,3.3,4.8,5.4c1.1,2.1,1.7,4.6,1.7,7.3 L360.6,49.3L360.6,49.3z M341.3,47.3c0-1-0.2-1.9-0.5-2.6c-0.3-0.7-0.8-1.2-1.3-1.6c-0.6-0.4-1.3-0.7-2.1-0.9 c-0.8-0.2-1.7-0.2-2.7-0.2h-15.4v12.6h15.1c0.9,0,1.8-0.1,2.6-0.3c0.8-0.2,1.6-0.5,2.2-1s1.2-1,1.5-1.8c0.4-0.7,0.6-1.6,0.6-2.6 L341.3,47.3L341.3,47.3z"></path> <path class="st0" d="M401.4,42.1v40.2h-19.1V42.1h-20V28.7h59V42L401.4,42.1L401.4,42.1z"></path> <path class="st0" d="M427.3,82.3V28.7h19v53.6H427.3z"></path> <path class="st0" d="M458.2,82.3V28.8h19v40.3h29v13.3L458.2,82.3L458.2,82.3z"></path> </g> </g> <g> <path id="XMLID_9_" class="st0" d="M53.4,60.7c0,0-6.2-36.8,26.5-44c18.3-4.1,20.6-12.1,20.6-12.1h2c0,0,15.6,40.7-21.1,44.3 c-23.6,2.3-27.1,11.8-27.1,11.8H53.4z"></path> <polygon id="XMLID_8_" class="st0" points="92.7,62.9 53.9,62.9 71.8,97.3 110.7,97.3 "></polygon> <path class="st0" d="M3.5,4.9V9c0,0,6.1,0,6.1,9.6c0,21.9,0,78.7,0,78.7h36.5V4.9H3.5z"></path> </g> </g> </svg> 