<?xml version="1.0" encoding="UTF-8"?> <!-- Generator: Adobe Illustrator 24.0.1, SVG Export Plug-In . SVG Version: 6.00 Build 0) --> <svg xmlns="http://www.w3.org/2000/svg" xmlns:xlink="http://www.w3.org/1999/xlink" id="Layer_1" x="0px" y="0px" viewBox="0 0 100 93.7" style="enable-background:new 0 0 100 93.7;" xml:space="preserve"> <style type="text/css"> .st0{fill:#151B21;} </style> <g> <path class="st0" d="M78.4,21.5L78.4,21.5l-0.1-0.1c-3.2-8.5-11.1-14-20.2-14c-11.9,0-21.5,9.7-21.5,21.6v0.6H7 c-1.1,0-1.9,0.8-1.9,1.9c0,0.4,0.2,0.9,0.5,1.2C6,33,6.5,33.3,7,33.3h37.4c0.5,0,0.9-0.2,1.3-0.6c0.4-0.3,0.5-0.8,0.5-1.2 c0-1.1-0.8-1.9-1.9-1.9h-4V29c0-9.8,8-17.8,17.7-17.8c7.9,0,14.7,5.1,17,12.6l0.4,1.2l1.1,0.2c8.5,1.3,14.6,8.5,14.6,17.1 c0,7.7-5.2,14.5-12.6,16.6l-1.9,0.5l0.7,1.8c0.6,1.7,0.9,3.5,0.9,5.4c0,8.9-7.2,16.2-16.1,16.2c-5.2,0-10.1-2.6-13.2-6.9l-0.7-1 L47,75.2c-1.2,0.2-2.2,0.3-3.3,0.3c-7.2,0-13.5-4.6-15.7-11.5l0-0.4h16.3c1.1,0,1.9-0.8,1.9-1.8c0-0.3-0.2-0.8-0.4-1.1 c-0.3-0.5-0.9-0.8-1.5-0.8H6.9c-0.6,0-1.1,0.3-1.5,0.7l0,0c-0.2,0.2-0.3,0.6-0.3,1c0,1.1,0.8,1.8,1.9,1.8h17.2v0.2 c2.3,9,10.4,15.3,19.7,15.3c0.9,0,1.8-0.1,2.7-0.2h0.1l0.1,0.1c3.8,4.7,9.4,7.4,15.4,7.4C73,86.3,82,77.4,82,66.5 c0-1.8-0.2-3.3-0.5-4.5l-0.1-0.2l0.2-0.1C89.7,58.5,95,50.8,95,42.1C95,32.1,88.2,23.6,78.4,21.5z"></path> <path class="st0" d="M55,47c0-1.1-0.8-1.9-1.9-1.9H15.8c-1.1,0-1.8,0.8-1.8,1.9s0.8,1.8,1.8,1.8h37.3C54.2,48.8,55,48.1,55,47z"></path> </g> </svg> 